<?xml version="1.0" encoding="UTF-8" standalone="no"?><!DOCTYPE svg PUBLIC "-//W3C//DTD SVG 1.1//EN" "http://www.w3.org/Graphics/SVG/1.1/DTD/svg11.dtd"><!-- Generated by graphviz version 2.40.1 (20161225.0304)
 --><!-- Title: G Pages: 1 --><svg xmlns="http://www.w3.org/2000/svg" xmlns:xlink="http://www.w3.org/1999/xlink" width="1087pt" height="1660pt" viewBox="0.00 0.00 1087.02 1660.34">
<g id="graph0" class="graph" transform="scale(1 1) rotate(0) translate(4 1656.3388)">
<title>G</title>
<polygon fill="#ffffff" stroke="transparent" points="-4,4 -4,-1656.3388 1083.016,-1656.3388 1083.016,4 -4,4"/>
<!-- tensor_140594179493064 -->
<g id="node1" class="node">
<title>tensor_140594179493064</title>
<ellipse fill="#7fffd4" stroke="#000000" cx="202.508" cy="-1091.0479" rx="38.3146" ry="38.3146"/>
<text text-anchor="middle" x="202.508" y="-1085.0479" font-family="Times,serif" font-size="20.00" fill="#000000">(4,8)</text>
</g>
<!-- LeafNodeBackward_140594177395656 -->
<g id="node16" class="node">
<title>LeafNodeBackward_140594177395656</title>
<polygon fill="#00ffff" stroke="#000000" points="337.024,-1016.6407 -.008,-1016.6407 -.008,-980.6407 337.024,-980.6407 337.024,-1016.6407"/>
<text text-anchor="middle" x="168.508" y="-992.6407" font-family="Times,serif" font-size="20.00" fill="#000000">LeafNodeBackward_140594177395656</text>
</g>
<!-- tensor_140594179493064&#45;&gt;LeafNodeBackward_140594177395656 -->
<g id="edge29" class="edge">
<title>tensor_140594179493064-&gt;LeafNodeBackward_140594177395656</title>
<path fill="none" stroke="#000000" d="M189.1679,-1054.7913C185.7075,-1045.3865 182.0348,-1035.4045 178.7606,-1026.5059"/>
<polygon fill="#000000" stroke="#000000" points="182.0038,-1025.1842 175.266,-1017.0078 175.4344,-1027.6013 182.0038,-1025.1842"/>
</g>
<!-- tensor_140594177394152 -->
<g id="node2" class="node">
<title>tensor_140594177394152</title>
<ellipse fill="#7fffd4" stroke="#000000" cx="448.508" cy="-1275.8623" rx="38.3146" ry="38.3146"/>
<text text-anchor="middle" x="448.508" y="-1269.8623" font-family="Times,serif" font-size="20.00" fill="#000000">(5,8)</text>
</g>
<!-- MatmulBackward_140594177394472 -->
<g id="node26" class="node">
<title>MatmulBackward_140594177394472</title>
<polygon fill="#00ffff" stroke="#000000" points="493.9062,-1201.4551 173.1098,-1201.4551 173.1098,-1165.4551 493.9062,-1165.4551 493.9062,-1201.4551"/>
<text text-anchor="middle" x="333.508" y="-1177.4551" font-family="Times,serif" font-size="20.00" fill="#000000">MatmulBackward_140594177394472</text>
</g>
<!-- tensor_140594177394152&#45;&gt;MatmulBackward_140594177394472 -->
<g id="edge26" class="edge">
<title>tensor_140594177394152-&gt;MatmulBackward_140594177394472</title>
<path fill="none" stroke="#000000" d="M418.2931,-1251.5834C401.5937,-1238.1648 380.8973,-1221.5343 364.1331,-1208.0636"/>
<polygon fill="#000000" stroke="#000000" points="366.2416,-1205.2679 356.2541,-1201.7325 361.857,-1210.7246 366.2416,-1205.2679"/>
</g>
<!-- tensor_140594179491928 -->
<g id="node3" class="node">
<title>tensor_140594179491928</title>
<ellipse fill="#7fffd4" stroke="#000000" cx="681.508" cy="-714.348" rx="45.4566" ry="45.4566"/>
<text text-anchor="middle" x="681.508" y="-708.348" font-family="Times,serif" font-size="20.00" fill="#000000">(32,8)</text>
</g>
<!-- LeafNodeBackward_140594177393272 -->
<g id="node18" class="node">
<title>LeafNodeBackward_140594177393272</title>
<polygon fill="#00ffff" stroke="#000000" points="731.024,-632.8697 393.992,-632.8697 393.992,-596.8697 731.024,-596.8697 731.024,-632.8697"/>
<text text-anchor="middle" x="562.508" y="-608.8697" font-family="Times,serif" font-size="20.00" fill="#000000">LeafNodeBackward_140594177393272</text>
</g>
<!-- tensor_140594179491928&#45;&gt;LeafNodeBackward_140594177393272 -->
<g id="edge22" class="edge">
<title>tensor_140594179491928-&gt;LeafNodeBackward_140594177393272</title>
<path fill="none" stroke="#000000" d="M646.4477,-685.0392C629.1259,-670.5591 608.4594,-653.2828 591.9672,-639.4961"/>
<polygon fill="#000000" stroke="#000000" points="594.1564,-636.7644 584.2393,-633.036 589.6668,-642.135 594.1564,-636.7644"/>
</g>
<!-- tensor_140594179492488 -->
<g id="node4" class="node">
<title>tensor_140594179492488</title>
<ellipse fill="#7fffd4" stroke="#000000" cx="595.508" cy="-906.2334" rx="38.3146" ry="38.3146"/>
<text text-anchor="middle" x="595.508" y="-900.2334" font-family="Times,serif" font-size="20.00" fill="#000000">(1,8)</text>
</g>
<!-- LeafNodeBackward_140594177394088 -->
<g id="node27" class="node">
<title>LeafNodeBackward_140594177394088</title>
<polygon fill="#00ffff" stroke="#000000" points="732.024,-831.8262 394.992,-831.8262 394.992,-795.8262 732.024,-795.8262 732.024,-831.8262"/>
<text text-anchor="middle" x="563.508" y="-807.8262" font-family="Times,serif" font-size="20.00" fill="#000000">LeafNodeBackward_140594177394088</text>
</g>
<!-- tensor_140594179492488&#45;&gt;LeafNodeBackward_140594177394088 -->
<g id="edge24" class="edge">
<title>tensor_140594179492488-&gt;LeafNodeBackward_140594177394088</title>
<path fill="none" stroke="#000000" d="M582.8608,-869.7117C579.6463,-860.4292 576.2428,-850.6009 573.2013,-841.8179"/>
<polygon fill="#000000" stroke="#000000" points="576.4098,-840.3871 569.8302,-832.0829 569.7952,-842.6777 576.4098,-840.3871"/>
</g>
<!-- tensor_140594179491256 -->
<g id="node5" class="node">
<title>tensor_140594179491256</title>
<ellipse fill="#7fffd4" stroke="#000000" cx="682.508" cy="-316.4348" rx="45.4566" ry="45.4566"/>
<text text-anchor="middle" x="682.508" y="-310.4348" font-family="Times,serif" font-size="20.00" fill="#000000">(1,32)</text>
</g>
<!-- LeafNodeBackward_140594179495912 -->
<g id="node19" class="node">
<title>LeafNodeBackward_140594179495912</title>
<polygon fill="#00ffff" stroke="#000000" points="732.024,-234.9566 394.992,-234.9566 394.992,-198.9566 732.024,-198.9566 732.024,-234.9566"/>
<text text-anchor="middle" x="563.508" y="-210.9566" font-family="Times,serif" font-size="20.00" fill="#000000">LeafNodeBackward_140594179495912</text>
</g>
<!-- tensor_140594179491256&#45;&gt;LeafNodeBackward_140594179495912 -->
<g id="edge20" class="edge">
<title>tensor_140594179491256-&gt;LeafNodeBackward_140594179495912</title>
<path fill="none" stroke="#000000" d="M647.4477,-287.1261C630.1259,-272.6459 609.4594,-255.3697 592.9672,-241.583"/>
<polygon fill="#000000" stroke="#000000" points="595.1564,-238.8513 585.2393,-235.1229 590.6668,-244.2219 595.1564,-238.8513"/>
</g>
<!-- tensor_140594177395976 -->
<g id="node6" class="node">
<title>tensor_140594177395976</title>
<ellipse fill="#7fffd4" stroke="#000000" cx="495.508" cy="-1460.6767" rx="38.3146" ry="38.3146"/>
<text text-anchor="middle" x="495.508" y="-1454.6767" font-family="Times,serif" font-size="20.00" fill="#000000">(5,8)</text>
</g>
<!-- MulBackward_140594177395912 -->
<g id="node29" class="node">
<title>MulBackward_140594177395912</title>
<polygon fill="#00ffff" stroke="#000000" points="640.9123,-1386.2695 350.1037,-1386.2695 350.1037,-1350.2695 640.9123,-1350.2695 640.9123,-1386.2695"/>
<text text-anchor="middle" x="495.508" y="-1362.2695" font-family="Times,serif" font-size="20.00" fill="#000000">MulBackward_140594177395912</text>
</g>
<!-- tensor_140594177395976&#45;&gt;MulBackward_140594177395912 -->
<g id="edge3" class="edge">
<title>tensor_140594177395976-&gt;MulBackward_140594177395912</title>
<path fill="none" stroke="#000000" d="M495.508,-1422.0232C495.508,-1413.5908 495.508,-1404.8135 495.508,-1396.8562"/>
<polygon fill="#000000" stroke="#000000" points="499.0081,-1396.6228 495.508,-1386.6229 492.0081,-1396.6229 499.0081,-1396.6228"/>
</g>
<!-- tensor_140594179490184 -->
<g id="node7" class="node">
<title>tensor_140594179490184</title>
<ellipse fill="#7fffd4" stroke="#000000" cx="910.508" cy="-117.4783" rx="45.4566" ry="45.4566"/>
<text text-anchor="middle" x="910.508" y="-111.4783" font-family="Times,serif" font-size="20.00" fill="#000000">(4,32)</text>
</g>
<!-- LeafNodeBackward_140594179495240 -->
<g id="node17" class="node">
<title>LeafNodeBackward_140594179495240</title>
<polygon fill="#00ffff" stroke="#000000" points="1079.024,-36 741.992,-36 741.992,0 1079.024,0 1079.024,-36"/>
<text text-anchor="middle" x="910.508" y="-12" font-family="Times,serif" font-size="20.00" fill="#000000">LeafNodeBackward_140594179495240</text>
</g>
<!-- tensor_140594179490184&#45;&gt;LeafNodeBackward_140594179495240 -->
<g id="edge18" class="edge">
<title>tensor_140594179490184-&gt;LeafNodeBackward_140594179495240</title>
<path fill="none" stroke="#000000" d="M910.508,-71.8152C910.508,-63.1067 910.508,-54.2304 910.508,-46.2638"/>
<polygon fill="#000000" stroke="#000000" points="914.0081,-46.0652 910.508,-36.0652 907.0081,-46.0653 914.0081,-46.0652"/>
</g>
<!-- tensor_140594177396504 -->
<g id="node8" class="node">
<title>tensor_140594177396504</title>
<ellipse fill="#7fffd4" stroke="#000000" cx="495.508" cy="-1629.7114" rx="22.7556" ry="22.7556"/>
<text text-anchor="middle" x="495.508" y="-1623.7114" font-family="Times,serif" font-size="20.00" fill="#000000">()</text>
</g>
<!-- SumBackward_140594177396616 -->
<g id="node21" class="node">
<title>SumBackward_140594177396616</title>
<polygon fill="#00ffff" stroke="#000000" points="642.2521,-1571.0839 348.7639,-1571.0839 348.7639,-1535.0839 642.2521,-1535.0839 642.2521,-1571.0839"/>
<text text-anchor="middle" x="495.508" y="-1547.0839" font-family="Times,serif" font-size="20.00" fill="#000000">SumBackward_140594177396616</text>
</g>
<!-- tensor_140594177396504&#45;&gt;SumBackward_140594177396616 -->
<g id="edge1" class="edge">
<title>tensor_140594177396504-&gt;SumBackward_140594177396616</title>
<path fill="none" stroke="#000000" d="M495.508,-1606.7206C495.508,-1598.7855 495.508,-1589.8004 495.508,-1581.4845"/>
<polygon fill="#000000" stroke="#000000" points="499.0081,-1581.4381 495.508,-1571.4381 492.0081,-1581.4381 499.0081,-1581.4381"/>
</g>
<!-- tensor_140594179493960 -->
<g id="node9" class="node">
<title>tensor_140594179493960</title>
<ellipse fill="#7fffd4" stroke="#000000" cx="910.508" cy="-316.4348" rx="45.4566" ry="45.4566"/>
<text text-anchor="middle" x="910.508" y="-310.4348" font-family="Times,serif" font-size="20.00" fill="#000000">(5,32)</text>
</g>
<!-- MatmulBackward_140594179494824 -->
<g id="node20" class="node">
<title>MatmulBackward_140594179494824</title>
<polygon fill="#00ffff" stroke="#000000" points="1070.9062,-234.9566 750.1098,-234.9566 750.1098,-198.9566 1070.9062,-198.9566 1070.9062,-234.9566"/>
<text text-anchor="middle" x="910.508" y="-210.9566" font-family="Times,serif" font-size="20.00" fill="#000000">MatmulBackward_140594179494824</text>
</g>
<!-- tensor_140594179493960&#45;&gt;MatmulBackward_140594179494824 -->
<g id="edge15" class="edge">
<title>tensor_140594179493960-&gt;MatmulBackward_140594179494824</title>
<path fill="none" stroke="#000000" d="M910.508,-270.7718C910.508,-262.0632 910.508,-253.1869 910.508,-245.2203"/>
<polygon fill="#000000" stroke="#000000" points="914.0081,-245.0218 910.508,-235.0218 907.0081,-245.0218 914.0081,-245.0218"/>
</g>
<!-- tensor_140594179495528 -->
<g id="node10" class="node">
<title>tensor_140594179495528</title>
<ellipse fill="#7fffd4" stroke="#000000" cx="910.508" cy="-515.3914" rx="45.4566" ry="45.4566"/>
<text text-anchor="middle" x="910.508" y="-509.3914" font-family="Times,serif" font-size="20.00" fill="#000000">(5,32)</text>
</g>
<!-- AddBackward_140594179495304 -->
<g id="node28" class="node">
<title>AddBackward_140594179495304</title>
<polygon fill="#00ffff" stroke="#000000" points="1056.0144,-433.9131 765.0016,-433.9131 765.0016,-397.9131 1056.0144,-397.9131 1056.0144,-433.9131"/>
<text text-anchor="middle" x="910.508" y="-409.9131" font-family="Times,serif" font-size="20.00" fill="#000000">AddBackward_140594179495304</text>
</g>
<!-- tensor_140594179495528&#45;&gt;AddBackward_140594179495304 -->
<g id="edge13" class="edge">
<title>tensor_140594179495528-&gt;AddBackward_140594179495304</title>
<path fill="none" stroke="#000000" d="M910.508,-469.7284C910.508,-461.0198 910.508,-452.1435 910.508,-444.1769"/>
<polygon fill="#000000" stroke="#000000" points="914.0081,-443.9783 910.508,-433.9783 907.0081,-443.9784 914.0081,-443.9783"/>
</g>
<!-- tensor_140594179500088 -->
<g id="node11" class="node">
<title>tensor_140594179500088</title>
<ellipse fill="#7fffd4" stroke="#000000" cx="910.508" cy="-714.348" rx="45.4566" ry="45.4566"/>
<text text-anchor="middle" x="910.508" y="-708.348" font-family="Times,serif" font-size="20.00" fill="#000000">(5,32)</text>
</g>
<!-- SigmoidBackward_140594179496664 -->
<g id="node24" class="node">
<title>SigmoidBackward_140594179496664</title>
<polygon fill="#00ffff" stroke="#000000" points="1073.868,-632.8697 749.148,-632.8697 749.148,-596.8697 1073.868,-596.8697 1073.868,-632.8697"/>
<text text-anchor="middle" x="911.508" y="-608.8697" font-family="Times,serif" font-size="20.00" fill="#000000">SigmoidBackward_140594179496664</text>
</g>
<!-- tensor_140594179500088&#45;&gt;SigmoidBackward_140594179496664 -->
<g id="edge11" class="edge">
<title>tensor_140594179500088-&gt;SigmoidBackward_140594179496664</title>
<path fill="none" stroke="#000000" d="M910.967,-668.6849C911.0546,-659.9764 911.1438,-651.1001 911.2239,-643.1334"/>
<polygon fill="#000000" stroke="#000000" points="914.7256,-642.9696 911.3264,-632.9349 907.726,-642.8992 914.7256,-642.9696"/>
</g>
<!-- tensor_140594179496952 -->
<g id="node12" class="node">
<title>tensor_140594179496952</title>
<ellipse fill="#7fffd4" stroke="#000000" cx="816.508" cy="-906.2334" rx="38.3146" ry="38.3146"/>
<text text-anchor="middle" x="816.508" y="-900.2334" font-family="Times,serif" font-size="20.00" fill="#000000">(5,8)</text>
</g>
<!-- MatmulBackward_140594177392856 -->
<g id="node23" class="node">
<title>MatmulBackward_140594177392856</title>
<polygon fill="#00ffff" stroke="#000000" points="1070.9062,-831.8262 750.1098,-831.8262 750.1098,-795.8262 1070.9062,-795.8262 1070.9062,-831.8262"/>
<text text-anchor="middle" x="910.508" y="-807.8262" font-family="Times,serif" font-size="20.00" fill="#000000">MatmulBackward_140594177392856</text>
</g>
<!-- tensor_140594179496952&#45;&gt;MatmulBackward_140594177392856 -->
<g id="edge9" class="edge">
<title>tensor_140594179496952-&gt;MatmulBackward_140594177392856</title>
<path fill="none" stroke="#000000" d="M843.9494,-879.257C856.9051,-866.5209 872.274,-851.4124 884.9776,-838.924"/>
<polygon fill="#000000" stroke="#000000" points="887.4333,-841.418 892.1109,-831.9116 882.526,-836.4261 887.4333,-841.418"/>
</g>
<!-- tensor_140594177393608 -->
<g id="node13" class="node">
<title>tensor_140594177393608</title>
<ellipse fill="#7fffd4" stroke="#000000" cx="659.508" cy="-1091.0479" rx="38.3146" ry="38.3146"/>
<text text-anchor="middle" x="659.508" y="-1085.0479" font-family="Times,serif" font-size="20.00" fill="#000000">(5,8)</text>
</g>
<!-- AddBackward_140594177393368 -->
<g id="node25" class="node">
<title>AddBackward_140594177393368</title>
<polygon fill="#00ffff" stroke="#000000" points="805.0144,-1016.6407 514.0016,-1016.6407 514.0016,-980.6407 805.0144,-980.6407 805.0144,-1016.6407"/>
<text text-anchor="middle" x="659.508" y="-992.6407" font-family="Times,serif" font-size="20.00" fill="#000000">AddBackward_140594177393368</text>
</g>
<!-- tensor_140594177393608&#45;&gt;AddBackward_140594177393368 -->
<g id="edge7" class="edge">
<title>tensor_140594177393608-&gt;AddBackward_140594177393368</title>
<path fill="none" stroke="#000000" d="M659.508,-1052.3943C659.508,-1043.9619 659.508,-1035.1846 659.508,-1027.2273"/>
<polygon fill="#000000" stroke="#000000" points="663.0081,-1026.994 659.508,-1016.994 656.0081,-1026.994 663.0081,-1026.994"/>
</g>
<!-- tensor_140594177395256 -->
<g id="node14" class="node">
<title>tensor_140594177395256</title>
<ellipse fill="#7fffd4" stroke="#000000" cx="601.508" cy="-1275.8623" rx="38.3146" ry="38.3146"/>
<text text-anchor="middle" x="601.508" y="-1269.8623" font-family="Times,serif" font-size="20.00" fill="#000000">(5,8)</text>
</g>
<!-- ReluBackward_140594177394664 -->
<g id="node22" class="node">
<title>ReluBackward_140594177394664</title>
<polygon fill="#00ffff" stroke="#000000" points="806.85,-1201.4551 512.166,-1201.4551 512.166,-1165.4551 806.85,-1165.4551 806.85,-1201.4551"/>
<text text-anchor="middle" x="659.508" y="-1177.4551" font-family="Times,serif" font-size="20.00" fill="#000000">ReluBackward_140594177394664</text>
</g>
<!-- tensor_140594177395256&#45;&gt;ReluBackward_140594177394664 -->
<g id="edge5" class="edge">
<title>tensor_140594177395256-&gt;ReluBackward_140594177394664</title>
<path fill="none" stroke="#000000" d="M621.9566,-1243.283C628.7674,-1232.4318 636.2693,-1220.4796 642.7655,-1210.1297"/>
<polygon fill="#000000" stroke="#000000" points="645.821,-1211.8452 648.1728,-1201.5147 639.8921,-1208.1239 645.821,-1211.8452"/>
</g>
<!-- tensor_140594179493672 -->
<g id="node15" class="node">
<title>tensor_140594179493672</title>
<ellipse fill="#f0ffff" stroke="#000000" cx="587.508" cy="-117.4783" rx="38.3146" ry="38.3146"/>
<text text-anchor="middle" x="587.508" y="-111.4783" font-family="Times,serif" font-size="20.00" fill="#000000">(5,4)</text>
</g>
<!-- MatmulBackward_140594179494824&#45;&gt;tensor_140594179490184 -->
<g id="edge17" class="edge">
<title>MatmulBackward_140594179494824-&gt;tensor_140594179490184</title>
<path fill="none" stroke="#000000" d="M910.508,-198.7107C910.508,-191.4566 910.508,-182.6842 910.508,-173.6235"/>
<polygon fill="#000000" stroke="#000000" points="914.0081,-173.3365 910.508,-163.3366 907.0081,-173.3366 914.0081,-173.3365"/>
</g>
<!-- MatmulBackward_140594179494824&#45;&gt;tensor_140594179493672 -->
<g id="edge16" class="edge">
<title>MatmulBackward_140594179494824-&gt;tensor_140594179493672</title>
<path fill="none" stroke="#000000" d="M852.0151,-198.9418C789.4602,-179.676 691.5185,-149.5117 634.0077,-131.7994"/>
<polygon fill="#000000" stroke="#000000" points="635.0343,-128.4534 624.4471,-128.8549 632.9739,-135.1433 635.0343,-128.4534"/>
</g>
<!-- SumBackward_140594177396616&#45;&gt;tensor_140594177395976 -->
<g id="edge2" class="edge">
<title>SumBackward_140594177396616-&gt;tensor_140594177395976</title>
<path fill="none" stroke="#000000" d="M495.508,-1534.8272C495.508,-1527.4134 495.508,-1518.4617 495.508,-1509.3809"/>
<polygon fill="#000000" stroke="#000000" points="499.0081,-1509.1485 495.508,-1499.1485 492.0081,-1509.1486 499.0081,-1509.1485"/>
</g>
<!-- ReluBackward_140594177394664&#45;&gt;tensor_140594177393608 -->
<g id="edge6" class="edge">
<title>ReluBackward_140594177394664-&gt;tensor_140594177393608</title>
<path fill="none" stroke="#000000" d="M659.508,-1165.1984C659.508,-1157.7845 659.508,-1148.8329 659.508,-1139.752"/>
<polygon fill="#000000" stroke="#000000" points="663.0081,-1139.5196 659.508,-1129.5197 656.0081,-1139.5197 663.0081,-1139.5196"/>
</g>
<!-- MatmulBackward_140594177392856&#45;&gt;tensor_140594179491928 -->
<g id="edge21" class="edge">
<title>MatmulBackward_140594177392856-&gt;tensor_140594179491928</title>
<path fill="none" stroke="#000000" d="M869.0378,-795.8115C830.7737,-779.1894 773.8343,-754.4548 732.7415,-736.6039"/>
<polygon fill="#000000" stroke="#000000" points="734.01,-733.3391 723.4435,-732.5649 731.2209,-739.7595 734.01,-733.3391"/>
</g>
<!-- MatmulBackward_140594177392856&#45;&gt;tensor_140594179500088 -->
<g id="edge10" class="edge">
<title>MatmulBackward_140594177392856-&gt;tensor_140594179500088</title>
<path fill="none" stroke="#000000" d="M910.508,-795.5804C910.508,-788.3263 910.508,-779.5539 910.508,-770.4931"/>
<polygon fill="#000000" stroke="#000000" points="914.0081,-770.2062 910.508,-760.2063 907.0081,-770.2063 914.0081,-770.2062"/>
</g>
<!-- SigmoidBackward_140594179496664&#45;&gt;tensor_140594179495528 -->
<g id="edge12" class="edge">
<title>SigmoidBackward_140594179496664-&gt;tensor_140594179495528</title>
<path fill="none" stroke="#000000" d="M911.3246,-596.6238C911.2517,-589.3697 911.1635,-580.5973 911.0724,-571.5366"/>
<polygon fill="#000000" stroke="#000000" points="914.5694,-571.214 910.969,-561.2497 907.5698,-571.2844 914.5694,-571.214"/>
</g>
<!-- AddBackward_140594177393368&#45;&gt;tensor_140594179492488 -->
<g id="edge23" class="edge">
<title>AddBackward_140594177393368-&gt;tensor_140594179492488</title>
<path fill="none" stroke="#000000" d="M646.8637,-980.384C640.1215,-970.6492 631.5431,-958.2632 623.337,-946.4147"/>
<polygon fill="#000000" stroke="#000000" points="626.03,-944.1558 617.459,-937.9277 620.2754,-948.1414 626.03,-944.1558"/>
</g>
<!-- AddBackward_140594177393368&#45;&gt;tensor_140594179496952 -->
<g id="edge8" class="edge">
<title>AddBackward_140594177393368-&gt;tensor_140594179496952</title>
<path fill="none" stroke="#000000" d="M690.1519,-980.6043C714.2043,-966.4474 747.9496,-946.5856 774.5171,-930.9485"/>
<polygon fill="#000000" stroke="#000000" points="776.3846,-933.9106 783.2273,-925.8218 772.8339,-927.878 776.3846,-933.9106"/>
</g>
<!-- MatmulBackward_140594177394472&#45;&gt;tensor_140594179493064 -->
<g id="edge28" class="edge">
<title>MatmulBackward_140594177394472-&gt;tensor_140594179493064</title>
<path fill="none" stroke="#000000" d="M307.9389,-1165.4187C289.2704,-1152.25 263.6039,-1134.1448 242.2695,-1119.0956"/>
<polygon fill="#000000" stroke="#000000" points="244.2181,-1116.1869 234.029,-1113.2827 240.1831,-1121.907 244.2181,-1116.1869"/>
</g>
<!-- MatmulBackward_140594177394472&#45;&gt;tensor_140594179493672 -->
<g id="edge27" class="edge">
<title>MatmulBackward_140594177394472-&gt;tensor_140594179493672</title>
<path fill="none" stroke="#000000" d="M338.7921,-1165.2738C347.881,-1132.3461 365.508,-1060.5108 365.508,-998.6407 365.508,-998.6407 365.508,-998.6407 365.508,-316.4348 365.508,-263.471 352.2866,-240.2059 385.508,-198.9566 423.4057,-151.9009 492.6833,-131.844 539.4084,-123.4144"/>
<polygon fill="#000000" stroke="#000000" points="540.0316,-126.8588 549.3082,-121.7406 538.8646,-119.9568 540.0316,-126.8588"/>
</g>
<!-- AddBackward_140594179495304&#45;&gt;tensor_140594179491256 -->
<g id="edge19" class="edge">
<title>AddBackward_140594179495304-&gt;tensor_140594179491256</title>
<path fill="none" stroke="#000000" d="M869.2189,-397.8984C831.1219,-381.2763 774.4312,-356.5417 733.5178,-338.6908"/>
<polygon fill="#000000" stroke="#000000" points="734.8256,-335.4429 724.2604,-334.6517 732.0263,-341.8588 734.8256,-335.4429"/>
</g>
<!-- AddBackward_140594179495304&#45;&gt;tensor_140594179493960 -->
<g id="edge14" class="edge">
<title>AddBackward_140594179495304-&gt;tensor_140594179493960</title>
<path fill="none" stroke="#000000" d="M910.508,-397.6673C910.508,-390.4131 910.508,-381.6408 910.508,-372.58"/>
<polygon fill="#000000" stroke="#000000" points="914.0081,-372.2931 910.508,-362.2931 907.0081,-372.2932 914.0081,-372.2931"/>
</g>
<!-- MulBackward_140594177395912&#45;&gt;tensor_140594177394152 -->
<g id="edge25" class="edge">
<title>MulBackward_140594177395912-&gt;tensor_140594177394152</title>
<path fill="none" stroke="#000000" d="M486.2223,-1350.0128C481.7078,-1341.1369 476.0723,-1330.0568 470.5452,-1319.1898"/>
<polygon fill="#000000" stroke="#000000" points="473.608,-1317.4912 465.9548,-1310.1646 467.3687,-1320.6647 473.608,-1317.4912"/>
</g>
<!-- MulBackward_140594177395912&#45;&gt;tensor_140594177395256 -->
<g id="edge4" class="edge">
<title>MulBackward_140594177395912-&gt;tensor_140594177395256</title>
<path fill="none" stroke="#000000" d="M516.1975,-1350.2331C529.9702,-1338.2265 548.4503,-1322.1162 564.6888,-1307.96"/>
<polygon fill="#000000" stroke="#000000" points="567.212,-1310.4036 572.45,-1301.1941 562.6122,-1305.1271 567.212,-1310.4036"/>
</g>
</g>
</svg>