<?xml version="1.0" encoding="UTF-8" standalone="no"?><!DOCTYPE svg PUBLIC "-//W3C//DTD SVG 1.1//EN" "http://www.w3.org/Graphics/SVG/1.1/DTD/svg11.dtd"><!-- Generated by graphviz version 2.40.1 (20161225.0304)
 --><!-- Title: G Pages: 1 --><svg xmlns="http://www.w3.org/2000/svg" xmlns:xlink="http://www.w3.org/1999/xlink" width="389pt" height="1588pt" viewBox="0.00 0.00 388.63 1588.34">
<g id="graph0" class="graph" transform="scale(1 1) rotate(0) translate(4 1584.3388)">
<title>G</title>
<polygon fill="#ffffff" stroke="transparent" points="-4,4 -4,-1584.3388 384.629,-1584.3388 384.629,4 -4,4"/>
<!-- tensor_140627988729032 -->
<g id="node1" class="node">
<title>tensor_140627988729032</title>
<ellipse fill="#7fffd4" stroke="#000000" cx="50.199" cy="-1019.0479" rx="38.3146" ry="38.3146"/>
<text text-anchor="middle" x="50.199" y="-1013.0479" font-family="Times,serif" font-size="20.00" fill="#000000">(4,8)</text>
</g>
<!-- tensor_140627988728456 -->
<g id="node2" class="node">
<title>tensor_140627988728456</title>
<ellipse fill="#7fffd4" stroke="#000000" cx="192.199" cy="-834.2334" rx="38.3146" ry="38.3146"/>
<text text-anchor="middle" x="192.199" y="-828.2334" font-family="Times,serif" font-size="20.00" fill="#000000">(1,8)</text>
</g>
<!-- tensor_140627988734600 -->
<g id="node3" class="node">
<title>tensor_140627988734600</title>
<ellipse fill="#7fffd4" stroke="#000000" cx="115.199" cy="-1203.8623" rx="38.3146" ry="38.3146"/>
<text text-anchor="middle" x="115.199" y="-1197.8623" font-family="Times,serif" font-size="20.00" fill="#000000">(5,8)</text>
</g>
<!-- MatmulBackward_140627988734872 -->
<g id="node16" class="node">
<title>MatmulBackward_140627988734872</title>
<polygon fill="#00ffff" stroke="#000000" points="160.5975,-1129.4551 -.1995,-1129.4551 -.1995,-1093.4551 160.5975,-1093.4551 160.5975,-1129.4551"/>
<text text-anchor="middle" x="80.199" y="-1105.4551" font-family="Times,serif" font-size="20.00" fill="#000000">MatmulBackward</text>
</g>
<!-- tensor_140627988734600&#45;&gt;MatmulBackward_140627988734872 -->
<g id="edge22" class="edge">
<title>tensor_140627988734600-&gt;MatmulBackward_140627988734872</title>
<path fill="none" stroke="#000000" d="M101.5669,-1167.8707C97.9689,-1158.3712 94.1412,-1148.2654 90.7344,-1139.2707"/>
<polygon fill="#000000" stroke="#000000" points="93.9167,-1137.791 87.1015,-1129.679 87.3705,-1140.2704 93.9167,-1137.791"/>
</g>
<!-- tensor_140627988727896 -->
<g id="node4" class="node">
<title>tensor_140627988727896</title>
<ellipse fill="#7fffd4" stroke="#000000" cx="189.199" cy="-642.348" rx="45.4566" ry="45.4566"/>
<text text-anchor="middle" x="189.199" y="-636.348" font-family="Times,serif" font-size="20.00" fill="#000000">(32,8)</text>
</g>
<!-- tensor_140627988727224 -->
<g id="node5" class="node">
<title>tensor_140627988727224</title>
<ellipse fill="#7fffd4" stroke="#000000" cx="189.199" cy="-244.4348" rx="45.4566" ry="45.4566"/>
<text text-anchor="middle" x="189.199" y="-238.4348" font-family="Times,serif" font-size="20.00" fill="#000000">(1,32)</text>
</g>
<!-- tensor_140627988726152 -->
<g id="node6" class="node">
<title>tensor_140627988726152</title>
<ellipse fill="#7fffd4" stroke="#000000" cx="261.199" cy="-45.4783" rx="45.4566" ry="45.4566"/>
<text text-anchor="middle" x="261.199" y="-39.4783" font-family="Times,serif" font-size="20.00" fill="#000000">(4,32)</text>
</g>
<!-- tensor_140627988729928 -->
<g id="node7" class="node">
<title>tensor_140627988729928</title>
<ellipse fill="#7fffd4" stroke="#000000" cx="298.199" cy="-244.4348" rx="45.4566" ry="45.4566"/>
<text text-anchor="middle" x="298.199" y="-238.4348" font-family="Times,serif" font-size="20.00" fill="#000000">(5,32)</text>
</g>
<!-- MatmulBackward_140627988730792 -->
<g id="node20" class="node">
<title>MatmulBackward_140627988730792</title>
<polygon fill="#00ffff" stroke="#000000" points="341.5975,-162.9566 180.8005,-162.9566 180.8005,-126.9566 341.5975,-126.9566 341.5975,-162.9566"/>
<text text-anchor="middle" x="261.199" y="-138.9566" font-family="Times,serif" font-size="20.00" fill="#000000">MatmulBackward</text>
</g>
<!-- tensor_140627988729928&#45;&gt;MatmulBackward_140627988730792 -->
<g id="edge15" class="edge">
<title>tensor_140627988729928-&gt;MatmulBackward_140627988730792</title>
<path fill="none" stroke="#000000" d="M282.2929,-201.6698C278.6499,-191.875 274.8699,-181.7121 271.5332,-172.7412"/>
<polygon fill="#000000" stroke="#000000" points="274.752,-171.355 267.9854,-163.2024 268.1911,-173.7953 274.752,-171.355"/>
</g>
<!-- tensor_140627988729640 -->
<g id="node8" class="node">
<title>tensor_140627988729640</title>
<ellipse fill="#f0ffff" stroke="#000000" cx="138.199" cy="-45.4783" rx="38.3146" ry="38.3146"/>
<text text-anchor="middle" x="138.199" y="-39.4783" font-family="Times,serif" font-size="20.00" fill="#000000">(5,4)</text>
</g>
<!-- tensor_140627988731496 -->
<g id="node9" class="node">
<title>tensor_140627988731496</title>
<ellipse fill="#7fffd4" stroke="#000000" cx="298.199" cy="-443.3914" rx="45.4566" ry="45.4566"/>
<text text-anchor="middle" x="298.199" y="-437.3914" font-family="Times,serif" font-size="20.00" fill="#000000">(5,32)</text>
</g>
<!-- AddBackward_140627988731272 -->
<g id="node21" class="node">
<title>AddBackward_140627988731272</title>
<polygon fill="#00ffff" stroke="#000000" points="363.7059,-361.9131 232.6921,-361.9131 232.6921,-325.9131 363.7059,-325.9131 363.7059,-361.9131"/>
<text text-anchor="middle" x="298.199" y="-337.9131" font-family="Times,serif" font-size="20.00" fill="#000000">AddBackward</text>
</g>
<!-- tensor_140627988731496&#45;&gt;AddBackward_140627988731272 -->
<g id="edge13" class="edge">
<title>tensor_140627988731496-&gt;AddBackward_140627988731272</title>
<path fill="none" stroke="#000000" d="M298.199,-397.7284C298.199,-389.0198 298.199,-380.1435 298.199,-372.1769"/>
<polygon fill="#000000" stroke="#000000" points="301.6991,-371.9783 298.199,-361.9783 294.6991,-371.9784 301.6991,-371.9783"/>
</g>
<!-- tensor_140627988736056 -->
<g id="node10" class="node">
<title>tensor_140627988736056</title>
<ellipse fill="#7fffd4" stroke="#000000" cx="298.199" cy="-642.348" rx="45.4566" ry="45.4566"/>
<text text-anchor="middle" x="298.199" y="-636.348" font-family="Times,serif" font-size="20.00" fill="#000000">(5,32)</text>
</g>
<!-- SigmoidBackward_140627988732632 -->
<g id="node17" class="node">
<title>SigmoidBackward_140627988732632</title>
<polygon fill="#00ffff" stroke="#000000" points="380.5591,-560.8697 215.8389,-560.8697 215.8389,-524.8697 380.5591,-524.8697 380.5591,-560.8697"/>
<text text-anchor="middle" x="298.199" y="-536.8697" font-family="Times,serif" font-size="20.00" fill="#000000">SigmoidBackward</text>
</g>
<!-- tensor_140627988736056&#45;&gt;SigmoidBackward_140627988732632 -->
<g id="edge11" class="edge">
<title>tensor_140627988736056-&gt;SigmoidBackward_140627988732632</title>
<path fill="none" stroke="#000000" d="M298.199,-596.6849C298.199,-587.9764 298.199,-579.1001 298.199,-571.1334"/>
<polygon fill="#000000" stroke="#000000" points="301.6991,-570.9349 298.199,-560.9349 294.6991,-570.9349 301.6991,-570.9349"/>
</g>
<!-- tensor_140627988733992 -->
<g id="node11" class="node">
<title>tensor_140627988733992</title>
<ellipse fill="#7fffd4" stroke="#000000" cx="246.199" cy="-1019.0479" rx="38.3146" ry="38.3146"/>
<text text-anchor="middle" x="246.199" y="-1013.0479" font-family="Times,serif" font-size="20.00" fill="#000000">(5,8)</text>
</g>
<!-- AddBackward_140627988733768 -->
<g id="node22" class="node">
<title>AddBackward_140627988733768</title>
<polygon fill="#00ffff" stroke="#000000" points="311.7059,-944.6407 180.6921,-944.6407 180.6921,-908.6407 311.7059,-908.6407 311.7059,-944.6407"/>
<text text-anchor="middle" x="246.199" y="-920.6407" font-family="Times,serif" font-size="20.00" fill="#000000">AddBackward</text>
</g>
<!-- tensor_140627988733992&#45;&gt;AddBackward_140627988733768 -->
<g id="edge7" class="edge">
<title>tensor_140627988733992-&gt;AddBackward_140627988733768</title>
<path fill="none" stroke="#000000" d="M246.199,-980.3943C246.199,-971.9619 246.199,-963.1846 246.199,-955.2273"/>
<polygon fill="#000000" stroke="#000000" points="249.6991,-954.994 246.199,-944.994 242.6991,-954.994 249.6991,-954.994"/>
</g>
<!-- tensor_140627988737240 -->
<g id="node12" class="node">
<title>tensor_140627988737240</title>
<ellipse fill="#7fffd4" stroke="#000000" cx="162.199" cy="-1388.6767" rx="38.3146" ry="38.3146"/>
<text text-anchor="middle" x="162.199" y="-1382.6767" font-family="Times,serif" font-size="20.00" fill="#000000">(5,8)</text>
</g>
<!-- MulBackward_140627988737000 -->
<g id="node23" class="node">
<title>MulBackward_140627988737000</title>
<polygon fill="#00ffff" stroke="#000000" points="227.6036,-1314.2695 96.7944,-1314.2695 96.7944,-1278.2695 227.6036,-1278.2695 227.6036,-1314.2695"/>
<text text-anchor="middle" x="162.199" y="-1290.2695" font-family="Times,serif" font-size="20.00" fill="#000000">MulBackward</text>
</g>
<!-- tensor_140627988737240&#45;&gt;MulBackward_140627988737000 -->
<g id="edge3" class="edge">
<title>tensor_140627988737240-&gt;MulBackward_140627988737000</title>
<path fill="none" stroke="#000000" d="M162.199,-1350.0232C162.199,-1341.5908 162.199,-1332.8135 162.199,-1324.8562"/>
<polygon fill="#000000" stroke="#000000" points="165.6991,-1324.6228 162.199,-1314.6229 158.6991,-1324.6229 165.6991,-1324.6228"/>
</g>
<!-- tensor_140627988732920 -->
<g id="node13" class="node">
<title>tensor_140627988732920</title>
<ellipse fill="#7fffd4" stroke="#000000" cx="287.199" cy="-834.2334" rx="38.3146" ry="38.3146"/>
<text text-anchor="middle" x="287.199" y="-828.2334" font-family="Times,serif" font-size="20.00" fill="#000000">(5,8)</text>
</g>
<!-- MatmulBackward_140627988733288 -->
<g id="node19" class="node">
<title>MatmulBackward_140627988733288</title>
<polygon fill="#00ffff" stroke="#000000" points="367.5975,-759.8262 206.8005,-759.8262 206.8005,-723.8262 367.5975,-723.8262 367.5975,-759.8262"/>
<text text-anchor="middle" x="287.199" y="-735.8262" font-family="Times,serif" font-size="20.00" fill="#000000">MatmulBackward</text>
</g>
<!-- tensor_140627988732920&#45;&gt;MatmulBackward_140627988733288 -->
<g id="edge9" class="edge">
<title>tensor_140627988732920-&gt;MatmulBackward_140627988733288</title>
<path fill="none" stroke="#000000" d="M287.199,-795.5799C287.199,-787.1475 287.199,-778.3702 287.199,-770.4129"/>
<polygon fill="#000000" stroke="#000000" points="290.6991,-770.1796 287.199,-760.1796 283.6991,-770.1796 290.6991,-770.1796"/>
</g>
<!-- tensor_140627988736536 -->
<g id="node14" class="node">
<title>tensor_140627988736536</title>
<ellipse fill="#7fffd4" stroke="#000000" cx="228.199" cy="-1203.8623" rx="38.3146" ry="38.3146"/>
<text text-anchor="middle" x="228.199" y="-1197.8623" font-family="Times,serif" font-size="20.00" fill="#000000">(5,8)</text>
</g>
<!-- ReluBackward_140627988736168 -->
<g id="node18" class="node">
<title>ReluBackward_140627988736168</title>
<polygon fill="#00ffff" stroke="#000000" points="313.5411,-1129.4551 178.8569,-1129.4551 178.8569,-1093.4551 313.5411,-1093.4551 313.5411,-1129.4551"/>
<text text-anchor="middle" x="246.199" y="-1105.4551" font-family="Times,serif" font-size="20.00" fill="#000000">ReluBackward</text>
</g>
<!-- tensor_140627988736536&#45;&gt;ReluBackward_140627988736168 -->
<g id="edge5" class="edge">
<title>tensor_140627988736536-&gt;ReluBackward_140627988736168</title>
<path fill="none" stroke="#000000" d="M235.5722,-1166.0101C237.2925,-1157.1786 239.0948,-1147.926 240.7164,-1139.6014"/>
<polygon fill="#000000" stroke="#000000" points="244.1772,-1140.1396 242.6539,-1129.6549 237.3064,-1138.8012 244.1772,-1140.1396"/>
</g>
<!-- tensor_140627988737720 -->
<g id="node15" class="node">
<title>tensor_140627988737720</title>
<ellipse fill="#7fffd4" stroke="#000000" cx="162.199" cy="-1557.7114" rx="22.7556" ry="22.7556"/>
<text text-anchor="middle" x="162.199" y="-1551.7114" font-family="Times,serif" font-size="20.00" fill="#000000">()</text>
</g>
<!-- SumBackward_140627988737864 -->
<g id="node24" class="node">
<title>SumBackward_140627988737864</title>
<polygon fill="#00ffff" stroke="#000000" points="228.9432,-1499.0839 95.4548,-1499.0839 95.4548,-1463.0839 228.9432,-1463.0839 228.9432,-1499.0839"/>
<text text-anchor="middle" x="162.199" y="-1475.0839" font-family="Times,serif" font-size="20.00" fill="#000000">SumBackward</text>
</g>
<!-- tensor_140627988737720&#45;&gt;SumBackward_140627988737864 -->
<g id="edge1" class="edge">
<title>tensor_140627988737720-&gt;SumBackward_140627988737864</title>
<path fill="none" stroke="#000000" d="M162.199,-1534.7206C162.199,-1526.7855 162.199,-1517.8004 162.199,-1509.4845"/>
<polygon fill="#000000" stroke="#000000" points="165.6991,-1509.4381 162.199,-1499.4381 158.6991,-1509.4381 165.6991,-1509.4381"/>
</g>
<!-- MatmulBackward_140627988734872&#45;&gt;tensor_140627988729032 -->
<g id="edge24" class="edge">
<title>MatmulBackward_140627988734872-&gt;tensor_140627988729032</title>
<path fill="none" stroke="#000000" d="M74.272,-1093.1984C71.6593,-1085.1509 68.4585,-1075.2915 65.2543,-1065.4217"/>
<polygon fill="#000000" stroke="#000000" points="68.4875,-1064.0458 62.0706,-1055.6153 61.8296,-1066.2074 68.4875,-1064.0458"/>
</g>
<!-- MatmulBackward_140627988734872&#45;&gt;tensor_140627988729640 -->
<g id="edge23" class="edge">
<title>MatmulBackward_140627988734872-&gt;tensor_140627988729640</title>
<path fill="none" stroke="#000000" d="M86.7643,-1093.1622C90.2794,-1082.7981 94.4407,-1069.528 97.199,-1057.4551 110.2843,-1000.1811 116.199,-985.3905 116.199,-926.6407 116.199,-926.6407 116.199,-926.6407 116.199,-244.4348 116.199,-192.6455 123.6545,-133.7299 129.8852,-93.5356"/>
<polygon fill="#000000" stroke="#000000" points="133.37,-93.9063 131.4787,-83.4816 126.4563,-92.8104 133.37,-93.9063"/>
</g>
<!-- SigmoidBackward_140627988732632&#45;&gt;tensor_140627988731496 -->
<g id="edge12" class="edge">
<title>SigmoidBackward_140627988732632-&gt;tensor_140627988731496</title>
<path fill="none" stroke="#000000" d="M298.199,-524.6238C298.199,-517.3697 298.199,-508.5973 298.199,-499.5366"/>
<polygon fill="#000000" stroke="#000000" points="301.6991,-499.2497 298.199,-489.2497 294.6991,-499.2497 301.6991,-499.2497"/>
</g>
<!-- ReluBackward_140627988736168&#45;&gt;tensor_140627988733992 -->
<g id="edge6" class="edge">
<title>ReluBackward_140627988736168-&gt;tensor_140627988733992</title>
<path fill="none" stroke="#000000" d="M246.199,-1093.1984C246.199,-1085.7845 246.199,-1076.8329 246.199,-1067.752"/>
<polygon fill="#000000" stroke="#000000" points="249.6991,-1067.5196 246.199,-1057.5197 242.6991,-1067.5197 249.6991,-1067.5196"/>
</g>
<!-- MatmulBackward_140627988733288&#45;&gt;tensor_140627988727896 -->
<g id="edge19" class="edge">
<title>MatmulBackward_140627988733288-&gt;tensor_140627988727896</title>
<path fill="none" stroke="#000000" d="M269.2243,-723.5804C257.837,-712.0213 242.652,-696.6073 228.5712,-682.3141"/>
<polygon fill="#000000" stroke="#000000" points="230.8458,-679.6358 221.3345,-674.9682 225.8591,-684.5483 230.8458,-679.6358"/>
</g>
<!-- MatmulBackward_140627988733288&#45;&gt;tensor_140627988736056 -->
<g id="edge10" class="edge">
<title>MatmulBackward_140627988733288-&gt;tensor_140627988736056</title>
<path fill="none" stroke="#000000" d="M289.2166,-723.5804C290.0364,-716.1659 291.0317,-707.1652 292.0571,-697.8917"/>
<polygon fill="#000000" stroke="#000000" points="295.5545,-698.1082 293.1748,-687.784 288.5969,-697.3387 295.5545,-698.1082"/>
</g>
<!-- MatmulBackward_140627988730792&#45;&gt;tensor_140627988726152 -->
<g id="edge17" class="edge">
<title>MatmulBackward_140627988730792-&gt;tensor_140627988726152</title>
<path fill="none" stroke="#000000" d="M261.199,-126.7107C261.199,-119.4566 261.199,-110.6842 261.199,-101.6235"/>
<polygon fill="#000000" stroke="#000000" points="264.6991,-101.3365 261.199,-91.3366 257.6991,-101.3366 264.6991,-101.3365"/>
</g>
<!-- MatmulBackward_140627988730792&#45;&gt;tensor_140627988729640 -->
<g id="edge16" class="edge">
<title>MatmulBackward_140627988730792-&gt;tensor_140627988729640</title>
<path fill="none" stroke="#000000" d="M238.9246,-126.9418C221.4454,-112.8052 196.7108,-92.8007 176.1272,-76.1534"/>
<polygon fill="#000000" stroke="#000000" points="178.1527,-73.29 168.1763,-69.7229 173.7507,-78.7328 178.1527,-73.29"/>
</g>
<!-- AddBackward_140627988731272&#45;&gt;tensor_140627988727224 -->
<g id="edge18" class="edge">
<title>AddBackward_140627988731272-&gt;tensor_140627988727224</title>
<path fill="none" stroke="#000000" d="M278.4599,-325.8984C265.0532,-313.6628 246.8299,-297.0314 230.344,-281.9856"/>
<polygon fill="#000000" stroke="#000000" points="232.661,-279.3617 222.9152,-275.2058 227.9422,-284.5321 232.661,-279.3617"/>
</g>
<!-- AddBackward_140627988731272&#45;&gt;tensor_140627988729928 -->
<g id="edge14" class="edge">
<title>AddBackward_140627988731272-&gt;tensor_140627988729928</title>
<path fill="none" stroke="#000000" d="M298.199,-325.6673C298.199,-318.4131 298.199,-309.6408 298.199,-300.58"/>
<polygon fill="#000000" stroke="#000000" points="301.6991,-300.2931 298.199,-290.2931 294.6991,-300.2932 301.6991,-300.2931"/>
</g>
<!-- AddBackward_140627988733768&#45;&gt;tensor_140627988728456 -->
<g id="edge20" class="edge">
<title>AddBackward_140627988733768-&gt;tensor_140627988728456</title>
<path fill="none" stroke="#000000" d="M235.5303,-908.384C230.1461,-899.1702 223.374,-887.5815 216.7939,-876.3213"/>
<polygon fill="#000000" stroke="#000000" points="219.6555,-874.2811 211.5882,-867.4131 213.6117,-877.8129 219.6555,-874.2811"/>
</g>
<!-- AddBackward_140627988733768&#45;&gt;tensor_140627988732920 -->
<g id="edge8" class="edge">
<title>AddBackward_140627988733768-&gt;tensor_140627988732920</title>
<path fill="none" stroke="#000000" d="M254.2993,-908.384C258.0515,-899.9272 262.6914,-889.4695 267.2915,-879.1016"/>
<polygon fill="#000000" stroke="#000000" points="270.6219,-880.2254 271.4783,-869.6653 264.2234,-877.3865 270.6219,-880.2254"/>
</g>
<!-- MulBackward_140627988737000&#45;&gt;tensor_140627988734600 -->
<g id="edge21" class="edge">
<title>MulBackward_140627988737000-&gt;tensor_140627988734600</title>
<path fill="none" stroke="#000000" d="M152.9133,-1278.0128C148.3988,-1269.1369 142.7633,-1258.0568 137.2362,-1247.1898"/>
<polygon fill="#000000" stroke="#000000" points="140.299,-1245.4912 132.6458,-1238.1646 134.0597,-1248.6647 140.299,-1245.4912"/>
</g>
<!-- MulBackward_140627988737000&#45;&gt;tensor_140627988736536 -->
<g id="edge4" class="edge">
<title>MulBackward_140627988737000-&gt;tensor_140627988736536</title>
<path fill="none" stroke="#000000" d="M175.2385,-1278.0128C182.3199,-1268.0981 191.3656,-1255.4331 199.9694,-1243.3869"/>
<polygon fill="#000000" stroke="#000000" points="202.8617,-1245.3593 205.8256,-1235.1874 197.1654,-1241.2908 202.8617,-1245.3593"/>
</g>
<!-- SumBackward_140627988737864&#45;&gt;tensor_140627988737240 -->
<g id="edge2" class="edge">
<title>SumBackward_140627988737864-&gt;tensor_140627988737240</title>
<path fill="none" stroke="#000000" d="M162.199,-1462.8272C162.199,-1455.4134 162.199,-1446.4617 162.199,-1437.3809"/>
<polygon fill="#000000" stroke="#000000" points="165.6991,-1437.1485 162.199,-1427.1485 158.6991,-1437.1486 165.6991,-1437.1485"/>
</g>
</g>
</svg>