<?xml version="1.0" encoding="UTF-8" standalone="no"?><!DOCTYPE svg PUBLIC "-//W3C//DTD SVG 1.1//EN" "http://www.w3.org/Graphics/SVG/1.1/DTD/svg11.dtd"><!-- Generated by graphviz version 2.40.1 (20161225.0304)
 --><!-- Title: G Pages: 1 --><svg xmlns="http://www.w3.org/2000/svg" xmlns:xlink="http://www.w3.org/1999/xlink" width="1001pt" height="1021pt" viewBox="0.00 0.00 1001.08 1020.80">
<g id="graph0" class="graph" transform="scale(1 1) rotate(0) translate(4 1016.8)">
<title>G</title>
<polygon fill="#ffffff" stroke="transparent" points="-4,4 -4,-1016.8 997.0764,-1016.8 997.0764,4 -4,4"/>
<!-- start -->
<!-- SumBackward_140665054842920 -->
<g id="node8" class="node">
<title>SumBackward_140665054842920</title>
<ellipse fill="none" stroke="#000000" cx="328.0382" cy="-906" rx="145.289" ry="18"/>
<text text-anchor="middle" x="328.0382" y="-901.8" font-family="Times,serif" font-size="14.00" fill="#000000">SumBackward_140665054842920</text>
</g>
<!-- start&#45;&gt;SumBackward_140665054842920 -->
<g id="edge1" class="edge">
<title>start-&gt;SumBackward_140665054842920</title>
<path fill="none" stroke="#ff0000" d="M328.0382,-976.4006C328.0382,-964.2949 328.0382,-948.2076 328.0382,-934.4674"/>
<polygon fill="#ff0000" stroke="#ff0000" points="331.5383,-934.072 328.0382,-924.072 324.5383,-934.0721 331.5383,-934.072"/>
<text text-anchor="middle" x="332.6988" y="-946.2" font-family="Times,serif" font-size="14.00" fill="#000000">()</text>
</g>
<!-- LeafNodeBackward_140665054842392 -->
<g id="node2" class="node">
<title>LeafNodeBackward_140665054842392</title>
<ellipse fill="none" stroke="#000000" cx="303.0382" cy="-639.6" rx="166.0764" ry="18"/>
<text text-anchor="middle" x="303.0382" y="-635.4" font-family="Times,serif" font-size="14.00" fill="#000000">LeafNodeBackward_140665054842392</text>
</g>
<!-- LeafNodeBackward_140665054840232 -->
<g id="node3" class="node">
<title>LeafNodeBackward_140665054840232</title>
<ellipse fill="none" stroke="#000000" cx="385.0382" cy="-373.2" rx="166.0764" ry="18"/>
<text text-anchor="middle" x="385.0382" y="-369" font-family="Times,serif" font-size="14.00" fill="#000000">LeafNodeBackward_140665054840232</text>
</g>
<!-- LeafNodeBackward_140665052742264 -->
<g id="node4" class="node">
<title>LeafNodeBackward_140665052742264</title>
<ellipse fill="none" stroke="#000000" cx="166.0382" cy="-18" rx="166.0764" ry="18"/>
<text text-anchor="middle" x="166.0382" y="-13.8" font-family="Times,serif" font-size="14.00" fill="#000000">LeafNodeBackward_140665052742264</text>
</g>
<!-- MatmulBackward_140665054839000 -->
<g id="node5" class="node">
<title>MatmulBackward_140665054839000</title>
<ellipse fill="none" stroke="#000000" cx="727.0382" cy="-373.2" rx="158.0285" ry="18"/>
<text text-anchor="middle" x="727.0382" y="-369" font-family="Times,serif" font-size="14.00" fill="#000000">MatmulBackward_140665054839000</text>
</g>
<!-- SigmoidBackward_140665052743640 -->
<g id="node12" class="node">
<title>SigmoidBackward_140665052743640</title>
<ellipse fill="none" stroke="#000000" cx="483.0382" cy="-284.4" rx="160.3376" ry="18"/>
<text text-anchor="middle" x="483.0382" y="-280.2" font-family="Times,serif" font-size="14.00" fill="#000000">SigmoidBackward_140665052743640</text>
</g>
<!-- MatmulBackward_140665054839000&#45;&gt;SigmoidBackward_140665052743640 -->
<g id="edge8" class="edge">
<title>MatmulBackward_140665054839000-&gt;SigmoidBackward_140665052743640</title>
<path fill="none" stroke="#ff0000" d="M679.7032,-355.9732C639.8459,-341.4677 582.7131,-320.6751 540.2885,-305.2354"/>
<polygon fill="#ff0000" stroke="#ff0000" points="541.2514,-301.8613 530.6574,-301.7303 538.8575,-308.4392 541.2514,-301.8613"/>
<text text-anchor="middle" x="643.9488" y="-324.6" font-family="Times,serif" font-size="14.00" fill="#000000">(5,32)</text>
</g>
<!-- LeafNodeBackward_140665054839416 -->
<g id="node13" class="node">
<title>LeafNodeBackward_140665054839416</title>
<ellipse fill="none" stroke="#000000" cx="827.0382" cy="-284.4" rx="166.0764" ry="18"/>
<text text-anchor="middle" x="827.0382" y="-280.2" font-family="Times,serif" font-size="14.00" fill="#000000">LeafNodeBackward_140665054839416</text>
</g>
<!-- MatmulBackward_140665054839000&#45;&gt;LeafNodeBackward_140665054839416 -->
<g id="edge14" class="edge">
<title>MatmulBackward_140665054839000-&gt;LeafNodeBackward_140665054839416</title>
<path fill="none" stroke="#ff0000" d="M747.2747,-355.23C762.1845,-341.9901 782.6458,-323.8204 799.1115,-309.1989"/>
<polygon fill="#ff0000" stroke="#ff0000" points="801.6784,-311.6003 806.8318,-302.3433 797.0304,-306.3661 801.6784,-311.6003"/>
<text text-anchor="middle" x="802.9488" y="-324.6" font-family="Times,serif" font-size="14.00" fill="#000000">(32,8)</text>
</g>
<!-- MatmulBackward_140665052741848 -->
<g id="node6" class="node">
<title>MatmulBackward_140665052741848</title>
<ellipse fill="none" stroke="#000000" cx="312.0382" cy="-106.8" rx="158.0285" ry="18"/>
<text text-anchor="middle" x="312.0382" y="-102.6" font-family="Times,serif" font-size="14.00" fill="#000000">MatmulBackward_140665052741848</text>
</g>
<!-- MatmulBackward_140665052741848&#45;&gt;LeafNodeBackward_140665052742264 -->
<g id="edge12" class="edge">
<title>MatmulBackward_140665052741848-&gt;LeafNodeBackward_140665052742264</title>
<path fill="none" stroke="#ff0000" d="M282.8438,-89.0434C260.1649,-75.2497 228.5348,-56.0117 203.9084,-41.0334"/>
<polygon fill="#ff0000" stroke="#ff0000" points="205.5446,-37.932 195.182,-35.7258 201.907,-43.9127 205.5446,-37.932"/>
<text text-anchor="middle" x="269.9488" y="-58.2" font-family="Times,serif" font-size="14.00" fill="#000000">(4,32)</text>
</g>
<!-- input_140665043366736 -->
<!-- MatmulBackward_140665052741848&#45;&gt;input_140665043366736 -->
<g id="edge11" class="edge">
<title>MatmulBackward_140665052741848-&gt;input_140665043366736</title>
<path fill="none" stroke="#000000" d="M341.2326,-89.0434C364.0597,-75.1595 395.9554,-55.76 420.6499,-40.7403"/>
<polygon fill="#000000" stroke="#000000" points="422.6669,-43.6101 429.392,-35.4232 419.0294,-37.6294 422.6669,-43.6101"/>
<text text-anchor="middle" x="412.4488" y="-58.2" font-family="Times,serif" font-size="14.00" fill="#000000">(5,4)</text>
</g>
<!-- SigmoidBackward_140665054841848 -->
<g id="node18" class="node">
<title>SigmoidBackward_140665054841848</title>
<ellipse fill="none" stroke="#000000" cx="328.0382" cy="-817.2" rx="160.3376" ry="18"/>
<text text-anchor="middle" x="328.0382" y="-813" font-family="Times,serif" font-size="14.00" fill="#000000">SigmoidBackward_140665054841848</text>
</g>
<!-- SumBackward_140665054842920&#45;&gt;SigmoidBackward_140665054841848 -->
<g id="edge2" class="edge">
<title>SumBackward_140665054842920-&gt;SigmoidBackward_140665054841848</title>
<path fill="none" stroke="#ff0000" d="M328.0382,-887.6006C328.0382,-875.4949 328.0382,-859.4076 328.0382,-845.6674"/>
<polygon fill="#ff0000" stroke="#ff0000" points="331.5383,-845.272 328.0382,-835.272 324.5383,-845.2721 331.5383,-845.272"/>
<text text-anchor="middle" x="341.4488" y="-857.4" font-family="Times,serif" font-size="14.00" fill="#000000">(5,1)</text>
</g>
<!-- AddBackward_140665054839512 -->
<g id="node9" class="node">
<title>AddBackward_140665054839512</title>
<ellipse fill="none" stroke="#000000" cx="410.0382" cy="-462" rx="144.1277" ry="18"/>
<text text-anchor="middle" x="410.0382" y="-457.8" font-family="Times,serif" font-size="14.00" fill="#000000">AddBackward_140665054839512</text>
</g>
<!-- AddBackward_140665054839512&#45;&gt;LeafNodeBackward_140665054840232 -->
<g id="edge15" class="edge">
<title>AddBackward_140665054839512-&gt;LeafNodeBackward_140665054840232</title>
<path fill="none" stroke="#ff0000" d="M404.8582,-443.6006C401.4163,-431.375 396.8312,-415.0887 392.938,-401.2599"/>
<polygon fill="#ff0000" stroke="#ff0000" points="396.2051,-399.9493 390.126,-391.272 389.467,-401.8463 396.2051,-399.9493"/>
<text text-anchor="middle" x="413.4488" y="-413.4" font-family="Times,serif" font-size="14.00" fill="#000000">(1,8)</text>
</g>
<!-- AddBackward_140665054839512&#45;&gt;MatmulBackward_140665054839000 -->
<g id="edge7" class="edge">
<title>AddBackward_140665054839512-&gt;MatmulBackward_140665054839000</title>
<path fill="none" stroke="#ff0000" d="M468.9205,-445.5055C522.2959,-430.5537 601.0175,-408.5017 657.4768,-392.686"/>
<polygon fill="#ff0000" stroke="#ff0000" points="658.7103,-395.9753 667.3955,-389.9075 656.822,-389.2347 658.7103,-395.9753"/>
<text text-anchor="middle" x="610.4488" y="-413.4" font-family="Times,serif" font-size="14.00" fill="#000000">(5,8)</text>
</g>
<!-- ReluBackward_140665054840808 -->
<g id="node10" class="node">
<title>ReluBackward_140665054840808</title>
<ellipse fill="none" stroke="#000000" cx="410.0382" cy="-550.8" rx="145.8494" ry="18"/>
<text text-anchor="middle" x="410.0382" y="-546.6" font-family="Times,serif" font-size="14.00" fill="#000000">ReluBackward_140665054840808</text>
</g>
<!-- ReluBackward_140665054840808&#45;&gt;AddBackward_140665054839512 -->
<g id="edge6" class="edge">
<title>ReluBackward_140665054840808-&gt;AddBackward_140665054839512</title>
<path fill="none" stroke="#ff0000" d="M410.0382,-532.4006C410.0382,-520.2949 410.0382,-504.2076 410.0382,-490.4674"/>
<polygon fill="#ff0000" stroke="#ff0000" points="413.5383,-490.072 410.0382,-480.072 406.5383,-490.0721 413.5383,-490.072"/>
<text text-anchor="middle" x="423.4488" y="-502.2" font-family="Times,serif" font-size="14.00" fill="#000000">(5,8)</text>
</g>
<!-- LeafNodeBackward_140665052743576 -->
<g id="node11" class="node">
<title>LeafNodeBackward_140665052743576</title>
<ellipse fill="none" stroke="#000000" cx="654.0382" cy="-106.8" rx="166.0764" ry="18"/>
<text text-anchor="middle" x="654.0382" y="-102.6" font-family="Times,serif" font-size="14.00" fill="#000000">LeafNodeBackward_140665052743576</text>
</g>
<!-- AddBackward_140665052742328 -->
<g id="node16" class="node">
<title>AddBackward_140665052742328</title>
<ellipse fill="none" stroke="#000000" cx="483.0382" cy="-195.6" rx="144.1277" ry="18"/>
<text text-anchor="middle" x="483.0382" y="-191.4" font-family="Times,serif" font-size="14.00" fill="#000000">AddBackward_140665052742328</text>
</g>
<!-- SigmoidBackward_140665052743640&#45;&gt;AddBackward_140665052742328 -->
<g id="edge9" class="edge">
<title>SigmoidBackward_140665052743640-&gt;AddBackward_140665052742328</title>
<path fill="none" stroke="#ff0000" d="M483.0382,-266.0006C483.0382,-253.8949 483.0382,-237.8076 483.0382,-224.0674"/>
<polygon fill="#ff0000" stroke="#ff0000" points="486.5383,-223.672 483.0382,-213.672 479.5383,-223.6721 486.5383,-223.672"/>
<text text-anchor="middle" x="499.9488" y="-235.8" font-family="Times,serif" font-size="14.00" fill="#000000">(5,32)</text>
</g>
<!-- AddBackward_140665054841928 -->
<g id="node14" class="node">
<title>AddBackward_140665054841928</title>
<ellipse fill="none" stroke="#000000" cx="328.0382" cy="-728.4" rx="144.1277" ry="18"/>
<text text-anchor="middle" x="328.0382" y="-724.2" font-family="Times,serif" font-size="14.00" fill="#000000">AddBackward_140665054841928</text>
</g>
<!-- AddBackward_140665054841928&#45;&gt;LeafNodeBackward_140665054842392 -->
<g id="edge17" class="edge">
<title>AddBackward_140665054841928-&gt;LeafNodeBackward_140665054842392</title>
<path fill="none" stroke="#ff0000" d="M322.8582,-710.0006C319.4163,-697.775 314.8312,-681.4887 310.938,-667.6599"/>
<polygon fill="#ff0000" stroke="#ff0000" points="314.2051,-666.3493 308.126,-657.672 307.467,-668.2463 314.2051,-666.3493"/>
<text text-anchor="middle" x="331.4488" y="-679.8" font-family="Times,serif" font-size="14.00" fill="#000000">(1,1)</text>
</g>
<!-- MatmulBackward_140665054840488 -->
<g id="node15" class="node">
<title>MatmulBackward_140665054840488</title>
<ellipse fill="none" stroke="#000000" cx="645.0382" cy="-639.6" rx="158.0285" ry="18"/>
<text text-anchor="middle" x="645.0382" y="-635.4" font-family="Times,serif" font-size="14.00" fill="#000000">MatmulBackward_140665054840488</text>
</g>
<!-- AddBackward_140665054841928&#45;&gt;MatmulBackward_140665054840488 -->
<g id="edge4" class="edge">
<title>AddBackward_140665054841928-&gt;MatmulBackward_140665054840488</title>
<path fill="none" stroke="#ff0000" d="M386.9205,-711.9055C440.2959,-696.9537 519.0175,-674.9017 575.4768,-659.086"/>
<polygon fill="#ff0000" stroke="#ff0000" points="576.7103,-662.3753 585.3955,-656.3075 574.822,-655.6347 576.7103,-662.3753"/>
<text text-anchor="middle" x="528.4488" y="-679.8" font-family="Times,serif" font-size="14.00" fill="#000000">(5,1)</text>
</g>
<!-- MatmulBackward_140665054840488&#45;&gt;ReluBackward_140665054840808 -->
<g id="edge5" class="edge">
<title>MatmulBackward_140665054840488-&gt;ReluBackward_140665054840808</title>
<path fill="none" stroke="#ff0000" d="M599.17,-622.2677C560.7119,-607.7354 505.6985,-586.9474 464.9106,-571.5348"/>
<polygon fill="#ff0000" stroke="#ff0000" points="465.9826,-568.1984 455.391,-567.9376 463.5082,-574.7465 465.9826,-568.1984"/>
<text text-anchor="middle" x="562.4488" y="-591" font-family="Times,serif" font-size="14.00" fill="#000000">(5,8)</text>
</g>
<!-- LeafNodeBackward_140665054841672 -->
<g id="node17" class="node">
<title>LeafNodeBackward_140665054841672</title>
<ellipse fill="none" stroke="#000000" cx="740.0382" cy="-550.8" rx="166.0764" ry="18"/>
<text text-anchor="middle" x="740.0382" y="-546.6" font-family="Times,serif" font-size="14.00" fill="#000000">LeafNodeBackward_140665054841672</text>
</g>
<!-- MatmulBackward_140665054840488&#45;&gt;LeafNodeBackward_140665054841672 -->
<g id="edge16" class="edge">
<title>MatmulBackward_140665054840488-&gt;LeafNodeBackward_140665054841672</title>
<path fill="none" stroke="#ff0000" d="M664.2629,-621.63C678.4271,-608.3901 697.8655,-590.2204 713.5078,-575.5989"/>
<polygon fill="#ff0000" stroke="#ff0000" points="715.9267,-578.1289 720.8421,-568.7433 711.1466,-573.0151 715.9267,-578.1289"/>
<text text-anchor="middle" x="715.4488" y="-591" font-family="Times,serif" font-size="14.00" fill="#000000">(8,1)</text>
</g>
<!-- AddBackward_140665052742328&#45;&gt;MatmulBackward_140665052741848 -->
<g id="edge10" class="edge">
<title>AddBackward_140665052742328-&gt;MatmulBackward_140665052741848</title>
<path fill="none" stroke="#ff0000" d="M449.2541,-178.056C422.2909,-164.054 384.3363,-144.3443 355.1774,-129.2021"/>
<polygon fill="#ff0000" stroke="#ff0000" points="356.5321,-125.9618 346.0443,-124.4593 353.306,-132.1742 356.5321,-125.9618"/>
<text text-anchor="middle" x="429.9488" y="-147" font-family="Times,serif" font-size="14.00" fill="#000000">(5,32)</text>
</g>
<!-- AddBackward_140665052742328&#45;&gt;LeafNodeBackward_140665052743576 -->
<g id="edge13" class="edge">
<title>AddBackward_140665052742328-&gt;LeafNodeBackward_140665052743576</title>
<path fill="none" stroke="#ff0000" d="M516.8223,-178.056C543.7855,-164.054 581.7401,-144.3443 610.899,-129.2021"/>
<polygon fill="#ff0000" stroke="#ff0000" points="612.7704,-132.1742 620.0321,-124.4593 609.5443,-125.9618 612.7704,-132.1742"/>
<text text-anchor="middle" x="600.9488" y="-147" font-family="Times,serif" font-size="14.00" fill="#000000">(1,32)</text>
</g>
<!-- SigmoidBackward_140665054841848&#45;&gt;AddBackward_140665054841928 -->
<g id="edge3" class="edge">
<title>SigmoidBackward_140665054841848-&gt;AddBackward_140665054841928</title>
<path fill="none" stroke="#ff0000" d="M328.0382,-798.8006C328.0382,-786.6949 328.0382,-770.6076 328.0382,-756.8674"/>
<polygon fill="#ff0000" stroke="#ff0000" points="331.5383,-756.472 328.0382,-746.472 324.5383,-756.4721 331.5383,-756.472"/>
<text text-anchor="middle" x="341.4488" y="-768.6" font-family="Times,serif" font-size="14.00" fill="#000000">(5,1)</text>
</g>
</g>
</svg>